<svg role="img" xmlns="http://www.w3.org/2000/svg" width="24" height="24" viewBox="0 0 24 24" fill="#fff">
    <path d="M12.033 2.01a2.238 2.238 0 0 0-2.03 1.26L1.727 17.73A2.265 2.265 0 0 0 3.756 21h16.489a2.265 2.265 0 0 0 2.032-3.264l-8.213-14.46a2.239 2.239 0 0 0-2.032-1.265Zm0 1.336a.905.905 0 0 1 .833.52l.018.035.02.035 8.188 14.418a.93.93 0 0 1-.847 1.31H3.755a.93.93 0 0 1-.846-1.313l8.253-14.418.02-.035.018-.035a.905.905 0 0 1 .833-.517Zm-.7 11.638V7.96h1.335v7.024h-1.336Zm1.4 2.02c0 .422-.329.764-.733.764-.405 0-.733-.342-.733-.764s.328-.764.733-.764c.405 0 .733.342.733.764Z"/>
</svg>
