<svg xmlns="http://www.w3.org/2000/svg" width="24" height="24" viewBox="0 0 24 24" fill="#fff">
    <path d="M12 7.9c-.7 0-1.3.6-1.3 1.3s.6 1.3 1.3 1.3 1.3-.6 1.3-1.3-.6-1.3-1.3-1.3zm0-1.3c1.5 0 2.7 1.2 2.7 2.7S13.5 12 12 12s-2.7-1.2-2.7-2.7 1.2-2.7 2.7-2.7zm0-4.7c-4.4 0-7.3 3-7.3 7.5 0 2.8 2.2 6.8 6.5 11.9l.3.4.3.4c.1.1.1.1.2 0h.1l.3-.4c4.6-5.3 6.9-9.5 6.9-12.3 0-4.6-2.9-7.5-7.3-7.5zm0-1.3c5.2 0 8.7 3.6 8.7 8.8 0 3.3-2.5 7.8-7.5 13.6 0 .1-.1.1-.1.1-.6.5-1.5.5-2 0L11 23l-.3-.4c-5-5.6-7.4-10-7.4-13.2C3.3 4.1 6.8.6 12 .6z"/>
</svg>
